<?xml version="1.0" encoding="UTF-8"?>
<svg version="1.1" xmlns="http://www.w3.org/2000/svg" width="48" height="48">
<path d="M0,0 L46,0 L46,21 L47,21 L47,26 L46,26 L46,46 L0,46 L0,26 L-1,26 L-1,21 L0,21 Z " fill="#03030A" transform="translate(1,1)"/>
<path d="M0,0 L5,0 L5,1 L7,1 L7,2 L9,2 L9,3 L10,3 L10,5 L12,5 L12,6 L11,6 L11,7 L12,7 L12,9 L11,9 L11,12 L13,12 L13,13 L16,13 L16,11 L17,11 L17,10 L18,10 L18,9 L21,9 L21,10 L22,10 L22,13 L21,13 L21,14 L19,14 L19,15 L21,15 L21,16 L19,16 L19,17 L21,17 L21,19 L22,19 L22,17 L23,17 L23,14 L25,14 L25,17 L24,17 L24,18 L25,18 L25,19 L26,19 L26,27 L25,27 L25,28 L24,28 L24,30 L22,30 L22,31 L21,31 L21,32 L16,32 L16,34 L17,34 L17,37 L16,37 L16,38 L14,38 L14,37 L13,37 L13,36 L12,36 L12,35 L14,35 L14,33 L9,33 L9,32 L8,32 L8,33 L4,33 L4,34 L3,34 L3,35 L1,35 L1,36 L-3,36 L-3,32 L0,32 L0,31 L-3,31 L-3,30 L-4,30 L-4,29 L-6,29 L-6,27 L-7,27 L-7,25 L-8,25 L-8,20 L-7,20 L-7,18 L-6,18 L-6,17 L-4,17 L-4,18 L-3,18 L-3,16 L-1,16 L-1,15 L-7,15 L-7,12 L-1,12 L-1,11 L-2,11 L-2,9 L-1,9 L-1,8 L-3,8 L-3,7 L-4,7 L-4,4 L-3,4 L-3,2 L-2,2 L-2,1 L0,1 Z " fill="#FDFCFE" transform="translate(15,5)"/>
<path d="M0,0 L46,0 L46,21 L47,21 L47,26 L46,26 L46,46 L0,46 L0,26 L-1,26 L-1,21 L0,21 Z M4,3 L4,43 L42,43 L42,3 Z " fill="#5C89D6" transform="translate(1,1)"/>
<path d="M0,0 L4,0 L4,39 L40,39 L40,42 L0,42 L0,22 L-1,22 L-1,17 L0,17 Z " fill="#5B87D3" transform="translate(1,5)"/>
<path d="M0,0 L2,0 L2,3 L1,3 L1,4 L2,4 L2,5 L3,5 L3,13 L2,13 L2,14 L1,14 L1,16 L-1,16 L-1,17 L-2,17 L-2,18 L-7,18 L-7,20 L-6,20 L-6,23 L-7,23 L-7,24 L-9,24 L-9,23 L-10,23 L-10,22 L-11,22 L-11,21 L-9,21 L-9,19 L-14,19 L-14,18 L-15,18 L-15,19 L-19,19 L-19,20 L-20,20 L-20,21 L-22,21 L-22,22 L-26,22 L-26,18 L-23,18 L-23,17 L-26,17 L-26,16 L-27,16 L-27,15 L-29,15 L-29,13 L-30,13 L-30,11 L-31,11 L-31,6 L-30,6 L-30,4 L-29,4 L-29,3 L-27,3 L-27,5 L-28,5 L-28,6 L-29,6 L-29,10 L-28,10 L-28,11 L-27,11 L-27,13 L-26,13 L-26,14 L-25,14 L-25,15 L-22,15 L-22,16 L-11,16 L-11,14 L-9,14 L-9,15 L-10,15 L-10,16 L-8,16 L-8,17 L-4,17 L-4,15 L-6,15 L-6,14 L-4,14 L-4,13 L-5,13 L-5,12 L-4,12 L-4,10 L-3,10 L-3,9 L-2,9 L-2,7 L-1,7 L-1,3 L0,3 Z " fill="#D6CCF0" transform="translate(38,19)"/>
<path d="M0,0 L3,0 L3,1 L4,1 L4,4 L3,4 L3,5 L1,5 L1,6 L3,6 L3,7 L1,7 L1,8 L3,8 L3,10 L4,10 L4,12 L3,12 L3,14 L2,14 L2,15 L1,15 L1,17 L0,17 L0,18 L1,18 L1,19 L-1,19 L-1,20 L1,20 L1,22 L-3,22 L-3,21 L-5,21 L-5,20 L-4,20 L-4,19 L-7,19 L-7,18 L-8,18 L-8,17 L-9,17 L-9,14 L-10,14 L-10,13 L-9,13 L-9,8 L-8,8 L-8,7 L-7,7 L-7,6 L-6,6 L-6,4 L-2,4 L-2,2 L-1,2 L-1,1 L0,1 Z " fill="#F1F0F7" transform="translate(33,14)"/>
<path d="M0,0 L46,0 L46,4 L42,4 L42,3 L4,3 L4,4 L0,4 Z " fill="#6393E8" transform="translate(1,1)"/>
<path d="M0,0 L5,0 L5,1 L7,1 L7,2 L9,2 L9,3 L10,3 L10,5 L12,5 L12,6 L11,6 L11,7 L12,7 L12,9 L11,9 L11,10 L4,10 L4,12 L2,12 L2,10 L0,10 L0,11 L-2,11 L-2,9 L-1,9 L-1,8 L-3,8 L-3,7 L-4,7 L-4,4 L-3,4 L-3,2 L-2,2 L-2,1 L0,1 Z " fill="#A593E8" transform="translate(15,5)"/>
<path d="M0,0 L2,0 L2,2 L4,2 L4,0 L11,0 L11,2 L13,2 L13,3 L12,3 L12,5 L11,5 L11,6 L10,6 L10,7 L9,7 L9,8 L8,8 L8,9 L4,9 L4,8 L-3,8 L-3,6 L-1,6 L-1,5 L-7,5 L-7,2 L-1,2 L-1,1 L0,1 Z " fill="#D5CCEA" transform="translate(15,15)"/>
<path d="M0,0 L34,0 L34,3 L0,3 Z " fill="#5C89D6" transform="translate(7,44)"/>
<path d="M0,0 L2,0 L2,3 L1,3 L1,4 L2,4 L2,5 L3,5 L3,13 L2,13 L2,14 L1,14 L1,16 L-1,16 L-1,17 L-2,17 L-2,18 L-4,18 L-4,15 L-6,15 L-6,14 L-4,14 L-4,13 L-5,13 L-5,12 L-4,12 L-4,10 L-3,10 L-3,9 L-2,9 L-2,7 L-1,7 L-1,3 L0,3 Z " fill="#857EB8" transform="translate(38,19)"/>
<path d="M0,0 L4,0 L4,17 L1,17 L1,16 L0,16 Z " fill="#5C89D6" transform="translate(43,5)"/>
<path d="M0,0 L4,0 L4,16 L3,16 L3,17 L0,17 Z " fill="#5D89D8" transform="translate(1,5)"/>
<path d="M0,0 L2,0 L2,2 L4,2 L4,0 L10,0 L10,1 L9,1 L9,2 L8,2 L8,6 L0,6 L0,2 L-1,2 L-1,1 L0,1 Z " fill="#F7F3FD" transform="translate(15,15)"/>
<path d="M0,0 L2,0 L2,3 L1,3 L1,4 L2,4 L2,5 L3,5 L3,10 L2,10 L2,11 L1,11 L1,13 L0,13 L0,14 L-3,14 L-3,13 L-2,13 L-2,12 L-1,12 L-1,10 L0,10 L0,5 L-1,5 L-1,3 L0,3 Z " fill="#E9E4F5" transform="translate(38,19)"/>
<path d="M0,0 L1,0 L1,1 L7,1 L7,2 L4,2 L4,3 L3,3 L3,4 L1,4 L1,5 L-3,5 L-3,1 L0,1 Z " fill="#A27A60" transform="translate(15,36)"/>
<path d="M0,0 L2,0 L2,2 L1,2 L1,3 L0,3 L0,7 L1,7 L1,8 L2,8 L2,10 L3,10 L3,11 L0,11 L0,10 L-1,10 L-1,8 L-2,8 L-2,3 L-1,3 L-1,1 L0,1 Z " fill="#EBE3FB" transform="translate(9,22)"/>
<path d="M0,0 L1,0 L1,1 L5,1 L5,6 L1,6 L1,7 L0,7 Z " fill="#F5D46D" transform="translate(43,21)"/>
<path d="M0,0 L1,0 L1,7 L0,7 L0,6 L-4,6 L-4,1 L0,1 Z " fill="#F5D46D" transform="translate(4,21)"/>
<path d="M0,0 L3,0 L3,1 L4,1 L4,4 L3,4 L3,5 L1,5 L1,6 L0,6 L0,5 L-2,5 L-2,2 L-1,2 L-1,1 L0,1 Z " fill="#D3CFE5" transform="translate(33,14)"/>
<path d="M0,0 L4,0 L4,4 L-2,4 L-2,1 L0,1 Z " fill="#E5C665" transform="translate(43,43)"/>
<path d="M0,0 L4,0 L4,1 L6,1 L6,4 L0,4 Z " fill="#E5C665" transform="translate(1,43)"/>
<path d="M0,0 L6,0 L6,4 L2,4 L2,3 L0,3 Z " fill="#E8C866" transform="translate(41,1)"/>
<path d="M0,0 L6,0 L6,3 L4,3 L4,4 L0,4 Z " fill="#E8C866" transform="translate(1,1)"/>
<path d="M0,0 L7,0 L7,3 L0,3 Z " fill="#E2B26D" transform="translate(8,17)"/>
<path d="M0,0 L3,0 L3,1 L4,1 L4,0 L5,0 L5,2 L4,2 L4,3 L5,3 L5,4 L6,4 L6,5 L3,5 L3,4 L1,4 L1,3 L0,3 Z " fill="#907EDD" transform="translate(11,9)"/>
<path d="M0,0 L3,0 L3,1 L4,1 L4,2 L5,2 L5,5 L4,5 L4,6 L2,6 L2,5 L1,5 L1,4 L0,4 L0,3 L2,3 L2,1 L0,1 Z " fill="#B48B6E" transform="translate(27,37)"/>
<path d="M0,0 L4,0 L4,1 L7,1 L7,2 L13,2 L13,3 L3,3 L3,2 L2,2 L2,1 L0,1 Z " fill="#DFD4F6" transform="translate(9,33)"/>
<path d="M0,0 L3,0 L3,2 L2,2 L2,4 L0,4 L0,5 L-1,5 L-1,4 L-3,4 L-3,2 L-2,2 L-2,1 L0,1 Z " fill="#CBBBFB" transform="translate(15,5)"/>
<path d="M0,0 L2,0 L2,1 L4,1 L4,2 L5,2 L5,5 L2,5 L2,3 L0,3 L0,4 L-1,4 L-1,2 L0,2 Z " fill="#AC99F3" transform="translate(18,5)"/>
<path d="M0,0 L4,0 L4,1 L3,1 L3,3 L2,3 L2,4 L0,4 L0,5 L-2,5 L-2,4 L-1,4 L-1,2 L0,2 Z " fill="#F8F5FD" transform="translate(33,25)"/>
<path d="M0,0 L1,0 L1,6 L0,6 L0,8 L-1,8 L-1,6 L-3,6 L-3,5 L-1,5 L-1,4 L-3,4 L-3,3 L-1,3 L-1,2 L0,2 Z " fill="#373677" transform="translate(37,16)"/>
<path d="M0,0 L2,0 L2,1 L3,1 L3,2 L4,2 L4,3 L3,3 L3,4 L2,4 L2,5 L0,5 Z " fill="#1A1A1A" transform="translate(14,26)"/>
<path d="M0,0 L1,0 L1,4 L3,4 L3,5 L2,5 L2,6 L1,6 L1,7 L0,7 L0,5 L-2,5 L-2,4 L0,4 L0,3 L-1,3 L-1,2 L0,2 Z " fill="#B3A9D5" transform="translate(34,29)"/>
<path d="M0,0 L1,0 L1,1 L4,1 L4,3 L-2,3 L-2,1 L0,1 Z " fill="#CDC6E1" transform="translate(14,20)"/>
<path d="M0,0 L4,0 L4,3 L0,3 Z " fill="#E2C364" transform="translate(44,23)"/>
<path d="M0,0 L4,0 L4,3 L0,3 Z " fill="#E2C364" transform="translate(0,23)"/>
<path d="M0,0 L2,0 L2,2 L1,2 L1,3 L0,3 L0,4 L-1,4 L-1,7 L-2,7 L-2,3 L-1,3 L-1,1 L0,1 Z " fill="#8582B6" transform="translate(9,22)"/>
<path d="M0,0 L1,0 L1,2 L2,2 L2,4 L-2,4 L-2,2 L-1,2 L-1,1 L0,1 Z " fill="#F6F4FA" transform="translate(33,14)"/>
<path d="M0,0 L2,0 L2,1 L1,1 L1,2 L2,2 L2,4 L1,4 L1,5 L-2,5 L-2,4 L-1,4 L-1,3 L0,3 Z " fill="#6E62B9" transform="translate(25,10)"/>
<path d="M0,0 L1,0 L1,2 L2,2 L2,4 L0,4 L0,3 L-1,3 L-1,2 L-2,2 L-2,1 L0,1 Z " fill="#F3BF72" transform="translate(29,39)"/>
</svg>
